<?xml version="1.0" standalone="no"?>
<!DOCTYPE svg PUBLIC "-//W3C//DTD SVG 1.1//EN" "http://www.w3.org/Graphics/SVG/1.1/DTD/svg11.dtd">
<svg xmlns="http://www.w3.org/2000/svg" xmlns:xlink="http://www.w3.org/1999/xlink" version="1.1" id="Layer_1" x="0px" y="0px" viewBox="0 0 685.2 685.2" style="enable-background:new 0 0 685.2 685.2;" xml:space="preserve" width="685.2000122070312" height="685.2000122070312">
<style type="text/css">
	.st0{fill:#DDE4E0;}
	.st1{fill:#17251F;}
	.st2{fill:#B16B28;}
</style>
<path id="LINES" class="st0" d="M684.5,107.2L663.2,0h-1.4l21.4,107.5L638.6,0h-1.5l44.7,108L609.7,0h-1.6l72.7,108.8l-52.1-52.1  L572,0v0H570v0l-75.5,75.5l-33.3,33.3L533.9,0h-1.6l-72.2,108L504.8,0h-1.5l-44.5,107.5L480.2,0h-1.4l-21.3,107.2V0h-1.4v107.2  L434.8,0h-1.4l21.4,107.5L410.2,0h-1.5l44.7,108L381.3,0h-1.6l72.7,108.8l-52.1-52.1L343.6,0v0h-1.9v0L232.8,108.8L305.5,0h-1.6  l-72.2,108L276.4,0H275l-44.5,107.5L251.8,0h-1.4l-21.3,107.2V0h-1.4v107.2L206.4,0H205l21.4,107.5L181.8,0h-1.5l44.7,108L152.9,0  h-1.6L224,108.8L115.2,0l0,0h-1.9l0,0L4.4,108.8L77.1,0h-1.6L3.3,108L48,0h-1.5L2,107.5L23.4,0H22L0.7,107.2V0H0v685.2h0.7V572.6  l36.5,36.5L22,685.2h1.4l14.9-74.9L66.1,638l-19.5,47.1H48l19.1-46.1l8.4,8.4l15.1,15.1l-15.1,22.6h1.6l14.5-21.6l21.6,21.6h0l0,0  h1.9l0,0h0l21.6-21.6l14.5,21.6h1.6l-15.1-22.6l23.5-23.5l19.1,46.1h1.5L162.3,638l9.4-9.4l18.4-18.4l14.9,74.9h1.4l-15.1-76.1  l36.5-36.5v112.5h1.4V572.6l36.5,36.5l-15.1,76.1h1.4l14.9-74.9l27.8,27.8L275,685.2h1.5l19.1-46.1l23.5,23.5l-15.1,22.6h1.6  l14.5-21.6l21.6,21.6l0,0h1.9l0,0l21.6-21.6l14.5,21.6h1.6l-15.1-22.6l23.5-23.5l19.1,46.1h1.5L390.7,638l27.8-27.8l14.9,74.9h1.4  l-15.1-76.1l36.5-36.5v112.5h1.4V572.6l36.5,36.5l-15.1,76.1h1.4l14.9-74.9l27.8,27.8l-19.5,47.1h1.5l19.1-46.1l23.5,23.5  l-15.1,22.6h1.6l14.5-21.6l21.6,21.6l0,0h1.9l0,0l21.6-21.6l14.5,21.6h1.6l-15.1-22.6l23.5-23.5l19.1,46.1h1.5L619.1,638l27.8-27.8  l14.9,74.9h1.4L648,609.1l36.5-36.5v112.5h0.7V0h-0.7V107.2z M227.4,114.2L118.6,223l87.2-130.4L227.4,114.2z M224,337.2  L115.2,228.4l21.6-21.6L224,337.2z M137.8,205.8l23.5-23.5l63.8,154.1L137.8,205.8z M204.8,320l-87.3,130.7l63.8-154.1L204.8,320z   M180.3,295.4l-64.1,154.6l36.3-182.4L180.3,295.4z M136.8,435.1L224,565.6l-71.1-71.1l-37.7-37.7h0L136.8,435.1z M137.8,434.2  l23.5-23.5l63.8,154.1L137.8,434.2z M162.3,409.6l27.8-27.8l36.3,182.4L162.3,409.6z M171.1,399l-52.4,52.4L205.8,321l21.6,21.6  L171.1,399z M162.3,181.3l27.8-27.8l36.3,182.4L162.3,181.3z M204.8,91.6l-87.3,130.7l63.8-154.1L204.8,91.6z M180.3,67.1  l-64.1,154.6l36.3-182.4L180.3,67.1z M114.9,1.7l36.5,36.5l-36.5,183.3V1.7z M114.9,230l36.5,36.5l-36.5,183.3V230z M75.9,39.3  l36.3,182.4L48.1,67.1L75.9,39.3z M2,335.9l36.3-182.4l27.8,27.8L2,335.9z M67.1,182.3l23.5,23.5L3.3,336.4L67.1,182.3z M22.6,321  l87.2,130.4L1,342.6L22.6,321z M23.6,320l23.5-23.5l63.8,154.1L23.6,320z M66.1,409.6L2,564.3l36.3-182.4L66.1,409.6z M67.1,410.7  l23.5,23.5L3.3,564.8L67.1,410.7z M91.6,435.1l21.6,21.6l-56.6,56.6L4.4,565.6L91.6,435.1z M48.1,295.4l27.8-27.8l36.3,182.4  L48.1,295.4z M4.4,337.2l87.2-130.4l21.6,21.6L4.4,337.2z M47.1,68.1l63.8,154.1L23.6,91.6L47.1,68.1z M22.6,92.6L109.8,223L1,114.2  L22.6,92.6z M0.7,115.9l36.5,36.5L0.7,335.6V115.9z M0.7,344.2l36.5,36.5L0.7,564V344.2z M1,571l21.6-21.6l87.2,130.4L1,571z   M23.6,548.4l23.5-23.5L110.9,679L23.6,548.4z M48.1,523.8l27.8-27.8l36.3,182.4L48.1,523.8z M113.5,678.2L77,494.9l36.5-36.5V678.2  z M113.5,449.8L77,266.5l36.5-36.5V449.8z M113.5,221.4L77,38.1l36.5-36.5V221.4z M114.9,678.2V458.4l36.5,36.5L114.9,678.2z   M152.5,496.1l27.8,27.8l-64.1,154.6L152.5,496.1z M181.3,524.9l8.4,8.4l15.1,15.1L117.5,679L181.3,524.9z M227.4,571l-56.5,56.5  l-52.3,52.3l87.2-130.4L227.4,571L227.4,571z M227.7,564l-36.5-183.3l36.5-36.5V564z M227.7,335.6l-36.5-183.3l36.5-36.5V335.6z   M455.8,114.2L347,223l87.2-130.4L455.8,114.2z M452.4,337.2L400.2,285l-56.6-56.6l21.6-21.6L452.4,337.2z M366.2,205.8l23.5-23.5  l63.8,154.1L366.2,205.8z M433.2,320l-87.3,130.7l63.8-154.1L433.2,320z M399.2,286l9.5,9.5l-64.1,154.6l36.3-182.4L399.2,286z   M365.2,435.1l87.2,130.4L343.6,456.8L365.2,435.1z M366.2,434.2l23.5-23.5l63.8,154.1L366.2,434.2z M390.7,409.6l27.8-27.8  l36.3,182.4L390.7,409.6z M347,451.4L434.2,321l21.6,21.6L347,451.4z M390.7,181.3l27.8-27.8l36.3,182.4L390.7,181.3z M433.2,91.6  l-87.3,130.7l63.8-154.1L433.2,91.6z M399.1,57.5l9.6,9.6l-64.1,154.6l36.3-182.4L399.1,57.5z M343.3,1.7l36.5,36.5l-36.5,183.3V1.7  z M343.3,230l36.5,36.5l-36.5,183.3V230z M304.3,39.3l36.3,182.4L276.5,67.1L304.3,39.3z M230.4,335.9l36.3-182.4l18.2,18.2l9.6,9.6  L230.4,335.9z M295.5,182.3l23.5,23.5l-87.3,130.7L295.5,182.3z M251,321l87.2,130.4L229.4,342.6L251,321z M252,320l23.5-23.5  l63.8,154.1L252,320z M294.5,409.6l-64.1,154.6l36.3-182.4L294.5,409.6z M295.5,410.7l23.5,23.5l-87.3,130.7L295.5,410.7z   M320,435.1l21.6,21.6L232.8,565.6L320,435.1z M276.5,295.4l27.8-27.8l36.3,182.4L276.5,295.4z M232.8,337.2L320,206.8l21.6,21.6  L232.8,337.2z M275.5,68.1l63.8,154.1L252,91.6L275.5,68.1z M251,92.6L338.2,223L229.4,114.2L251,92.6z M229.1,115.9l36.5,36.5  l-36.5,183.3V115.9z M229.1,344.2l36.5,36.5L229.1,564V344.2z M267.1,608.7L229.4,571h0l21.6-21.6l87.2,130.4L267.1,608.7z   M252,548.4l15-15l8.5-8.5L339.3,679L252,548.4z M276.5,523.8l27.8-27.8l36.3,182.4L276.5,523.8z M341.9,678.2l-36.5-183.3  l36.5-36.5V678.2z M341.9,449.8l-36.5-183.3l36.5-36.5V449.8z M341.9,221.4L305.4,38.1l36.5-36.5V221.4z M343.3,678.2V458.4  l36.5,36.5L343.3,678.2z M380.9,496.1l27.8,27.8l-64.1,154.6L380.9,496.1z M409.7,524.9l23.5,23.5L345.9,679L409.7,524.9z   M347,679.8l87.2-130.4l21.6,21.6L347,679.8z M456.1,564l-36.5-183.3l36.5-36.5V564z M456.1,335.6l-36.5-183.3l36.5-36.5V335.6z   M684.2,114.2L575.4,223l87.2-130.4L684.2,114.2z M680.7,337.2L628.6,285L572,228.4l21.6-21.6L680.7,337.2z M594.6,205.8l23.5-23.5  l63.8,154.1L594.6,205.8z M661.6,320l-87.3,130.7l63.8-154.1L661.6,320z M627.6,286l9.5,9.5L573,450.1l36.3-182.4L627.6,286z   M593.6,435.1l87.2,130.4L572,456.8L593.6,435.1z M594.6,434.2l23.5-23.5l63.8,154.1L594.6,434.2z M619.1,409.6l27.8-27.8  l36.3,182.4L619.1,409.6z M575.4,451.4l87.2-130.4l21.6,21.6L575.4,451.4z M619.1,181.3l27.8-27.8l36.3,182.4L619.1,181.3z   M661.6,91.6l-87.3,130.7l63.8-154.1L661.6,91.6z M627.5,57.5l9.6,9.6L573,221.7l36.3-182.4L627.5,57.5z M571.7,1.7l36.5,36.5  l-36.5,183.3V1.7z M571.7,230l36.5,36.5l-36.5,183.3V230z M532.7,39.3L569,221.7L504.9,67.1L532.7,39.3z M458.8,335.9l36.3-182.4  l18.1,18.1l9.7,9.7L458.8,335.9z M523.9,182.3l23.5,23.5l-87.3,130.7L523.9,182.3z M479.4,320.9l87.2,130.4L457.8,342.6L479.4,320.9  z M480.4,320l23.5-23.5l63.8,154.1L480.4,320z M522.9,409.6l-64.1,154.6l36.3-182.4L522.9,409.6z M523.9,410.7l23.5,23.5  l-87.3,130.7L523.9,410.7z M548.4,435.1l21.6,21.6L461.2,565.6L548.4,435.1z M504.9,295.4l27.8-27.8L569,450.1L504.9,295.4z   M461.2,337.2l87.2-130.4l21.6,21.6L461.2,337.2z M503.8,68.1l63.8,154.1L480.4,91.6L503.8,68.1z M479.4,92.6L566.5,223L457.8,114.2  L479.4,92.6z M457.5,115.9l36.5,36.5l-36.5,183.3V115.9z M457.5,344.2l36.5,36.5L457.5,564V344.2z M457.8,571l21.6-21.6l87.2,130.4  L457.8,571z M480.4,548.4l23.5-23.5L567.7,679L480.4,548.4z M504.9,523.8l27.8-27.8L569,678.5L504.9,523.8z M570.3,678.2  l-36.5-183.3l36.5-36.5V678.2z M570.3,449.8l-36.5-183.3l36.5-36.5V449.8z M570.3,221.4L533.8,38.1l36.5-36.5V221.4z M571.7,678.2  V458.4l36.5,36.5L571.7,678.2z M609.3,496.1l27.8,27.8L573,678.5L609.3,496.1z M638.1,524.9l23.5,23.5L574.3,679L638.1,524.9z   M575.4,679.8l87.2-130.4l21.6,21.6L575.4,679.8z M684.5,564L648,380.7l36.5-36.5V564z M684.5,335.6L648,152.3l36.5-36.5V335.6z"/>
</svg>